<svg t="1586106168014" class="icon" viewBox="0 0 1024 1024" version="1.1" xmlns="http://www.w3.org/2000/svg" p-id="2172" width="200" height="200"><path d="M638.848 840.832c-0.128 71.488-63.872 129.408-143.68 129.408-79.296 0-143.552-57.664-143.68-129.408h287.36zM590.912 86.592c0-47.488-42.88-86.208-95.744-86.208-52.8 0-95.808 38.592-95.808 86.208 0 4.864 0.448 9.6 1.28 14.272-132.224 41.472-240.768 168.96-240.768 319.616v118.72s0 170.88-46.656 172.416c-27.776 0-49.088 19.328-49.088 43.072 0 24 21.44 43.136 47.872 43.136h766.336c26.56 0 47.872-19.328 47.872-43.136 0-23.936-21.44-43.072-47.872-43.072-47.936 0-47.936-171.2-47.936-171.2V420.48c0-150.976-101.44-278.4-240.768-319.808 0.896-4.672 1.28-9.408 1.28-14.08z" p-id="2173"></path></svg>