<?xml version="1.0" standalone="no"?><!DOCTYPE svg PUBLIC "-//W3C//DTD SVG 1.1//EN" "http://www.w3.org/Graphics/SVG/1.1/DTD/svg11.dtd"><svg class="icon" width="200px" height="177.78px" viewBox="0 0 1152 1024" version="1.1" xmlns="http://www.w3.org/2000/svg"><path d="M372.6 516.4c0 24.4-19.4 43-44 43-18.4 0-32-10.4-32-30 0-24.4 19-44 43.4-44 18.6 0 32.6 11.4 32.6 31zM161 419.4h-9.4c-3 0-6 2-6.4 5.4l-8.6 53.4 16.4-0.6c22 0 39-3 43-28.4 4.6-26.8-12.4-29.8-35-29.8z m568 0H720c-3.6 0-6 2-6.4 5.4l-8.4 53.4 16-0.6c26 0 44-6 44-36-0.2-21.2-19.2-22.2-36.2-22.2zM1152 160v704c0 53-43 96-96 96H96c-53 0-96-43-96-96V160c0-53 43-96 96-96h960c53 0 96 43 96 96zM256.6 430.8c0-42-32.4-56-69.4-56h-80c-5 0-10 4-10.4 9.4L64 588.4c-0.6 4 2.4 8 6.4 8h38c5.4 0 10.4-5.8 11-11.4l9-53.2c2-14.4 26.4-9.4 36-9.4 57.2 0 92.2-34 92.2-91.6z m168.4 17.6h-38c-7.6 0-8 11-8.4 16.4-11.6-17-28.4-20-47.4-20-49 0-86.4 43-86.4 90.4 0 39 24.4 64.4 63.4 64.4 18 0 40.4-9.8 53-23.8-1 3-2 9.4-2 12.4 0 4.6 2 8 6.4 8H400c5.4 0 10-5.8 11-11.4l20.4-128.6c0.6-3.8-2.4-7.8-6.4-7.8z m81 195.8l127.4-185.2c1-1 1-2 1-3.4 0-3.4-3-7-6.4-7h-38.4c-3.4 0-7 2-9 5l-53 78-22-75c-1.6-4.4-6-8-11-8h-37.4c-3.4 0-6.4 3.6-6.4 7 0 2.4 39 113.6 42.4 124.2-5.4 7.6-41 57.2-41 63.2 0 3.6 3 6.4 6.4 6.4h38.4c3.6-0.2 7-2.2 9-5.2z m318.6-213.4c0-42-32.4-56-69.4-56h-79.4c-5.4 0-10.4 4-11 9.4l-32.4 204c-0.4 4 2.6 8 6.4 8h41c4 0 7-3 8-6.4l9-58c2-14.4 26.4-9.4 36-9.4 56.8 0 91.8-34 91.8-91.6z m168.4 17.6h-38c-7.6 0-8 11-8.6 16.4-11-17-28-20-47.4-20-49 0-86.4 43-86.4 90.4 0 39 24.4 64.4 63.4 64.4 18.6 0 41-9.8 53-23.8-0.6 3-2 9.4-2 12.4 0 4.6 2 8 6.4 8H968c5.4 0 10-5.8 11-11.4l20.4-128.6c0.6-3.8-2.4-7.8-6.4-7.8z m95-66.6c0-4-3-7-6.4-7h-37c-3 0-6 2.4-6.4 5.4l-32.4 208-0.6 1c0 3.6 3 7 7 7h33c5 0 10-5.8 10.4-11.4L1088 382.4v-0.6z m-180 103.6c-24.4 0-43.4 19.4-43.4 44 0 19.4 14 30 32.4 30 24 0 43.4-18.4 43.4-43 0.2-19.6-13.8-31-32.4-31z"  /></svg>