<svg t="1583301495831" class="icon" viewBox="0 0 1024 1024" version="1.1" xmlns="http://www.w3.org/2000/svg" p-id="9706" width="200" height="200"><path d="M795.733333 917.333333H249.6C181.333333 917.333333 128 864 128 795.733333V249.6C128 181.333333 181.333333 128 249.6 128h430.933333c23.466667 0 42.666667 19.2 42.666667 42.666667s-19.2 42.666667-42.666667 42.666666H249.6c-19.2 0-36.266667 14.933333-36.266667 36.266667v548.266667c0 19.2 14.933333 36.266667 36.266667 36.266666h548.266667c19.2 0 36.266667-14.933333 36.266666-36.266666V522.666667c0-23.466667 19.2-42.666667 42.666667-42.666667s42.666667 19.2 42.666667 42.666667v273.066666c-2.133333 68.266667-55.466667 121.6-123.733334 121.6z" p-id="9707"></path><path d="M533.333333 640c-10.666667 0-21.333333-4.266667-29.866666-12.8l-128-128c-17.066667-17.066667-17.066667-42.666667 0-59.733333s42.666667-17.066667 59.733333 0l98.133333 98.133333L887.466667 183.466667c17.066667-17.066667 42.666667-17.066667 59.733333 0s17.066667 42.666667 0 59.733333l-384 384c-8.533333 8.533333-19.2 12.8-29.866667 12.8z" p-id="9708"></path></svg>