<?xml version="1.0" standalone="no"?><!DOCTYPE svg PUBLIC "-//W3C//DTD SVG 1.1//EN" "http://www.w3.org/Graphics/SVG/1.1/DTD/svg11.dtd"><svg class="icon" width="200px" height="200.00px" viewBox="0 0 1024 1024" version="1.1" xmlns="http://www.w3.org/2000/svg"><path d="M0 576c0-141.376 114.624-256 256-256 24.32 0 47.424 4.48 69.696 10.816C350.208 214.976 452.864 128 576 128c141.376 0 256 114.624 256 256 0 22.592-3.904 44.096-9.344 64.96 3.136-0.192 6.144-0.96 9.344-0.96 106.048 0 192 86.016 192 192v64a192 192 0 0 1-192 192H256C114.624 896 0 781.376 0 640v-64z"  /></svg>