<?xml version="1.0" standalone="no"?><!DOCTYPE svg PUBLIC "-//W3C//DTD SVG 1.1//EN" "http://www.w3.org/Graphics/SVG/1.1/DTD/svg11.dtd"><svg class="icon" width="200px" height="172.83px" viewBox="0 0 1185 1024" version="1.1" xmlns="http://www.w3.org/2000/svg"><path d="M121.18432 438.848l356 380-171.424-380-184.576 0zM585.18432 880l199.424-441.152-398.848 0zM307.45632 365.728l116.576-219.424-149.728 0-164.576 219.424 197.728 0zM693.18432 818.848l356-380-184.576 0zM390.30432 365.728l389.728 0-116.576-219.424-156.576 0zM862.88032 365.728l197.728 0-164.576-219.424-149.728 0zM943.45632 88l219.424 292.576q8 10.272 7.424 23.712t-9.728 23.136l-548.576 585.152q-10.272 11.424-26.848 11.424t-26.848-11.424l-548.576-585.152q-9.152-9.728-9.728-23.136t7.424-23.712l219.424-292.576q10.272-14.848 29.152-14.848l658.272 0q18.848 0 29.152 14.848z" /></svg>