<?xml version="1.0" standalone="no"?><!DOCTYPE svg PUBLIC "-//W3C//DTD SVG 1.1//EN" "http://www.w3.org/Graphics/SVG/1.1/DTD/svg11.dtd"><svg class="icon" width="200px" height="200.00px" viewBox="0 0 1024 1024" version="1.1" xmlns="http://www.w3.org/2000/svg"><path d="M563.142857 877.714286l-98.285714 0q-7.428571 0-12.857143-5.142857t-5.428571-13.142857l0-188.571429-164.571429 0q-7.428571 0-12.857143-5.142857t-5.428571-13.142857l0-58.857143q0-7.428571 5.428571-12.857143t12.857143-5.428571l164.571429 0 0-48.571429-164.571429 0q-7.428571 0-12.857143-5.142857t-5.428571-13.142857l0-59.428571q0-7.428571 5.428571-12.857143t12.857143-5.428571l122.285714 0-183.428571-330.285714q-4.571429-9.142857 0-18.285714 5.714286-9.142857 16-9.142857l110.857143 0q10.857143 0 16.571429 10.285714l122.857143 242.857143q10.857143 21.714286 32 71.428571 5.714286-13.714286 17.428571-38.857143t15.714286-34.857143l109.142857-240q4.571429-10.857143 16.571429-10.857143l109.142857 0q9.714286 0 15.428571 9.142857 5.142857 8 0.571429 17.714286l-178.857143 330.857143 122.857143 0q7.428571 0 12.857143 5.428571t5.428571 12.857143l0 59.428571q0 8-5.428571 13.142857t-12.857143 5.142857l-165.714286 0 0 48.571429 165.714286 0q7.428571 0 12.857143 5.428571t5.428571 12.857143l0 58.857143q0 8-5.428571 13.142857t-12.857143 5.142857l-165.714286 0 0 188.571429q0 7.428571-5.428571 12.857143t-12.857143 5.428571z" /></svg>