<?xml version="1.0" standalone="no"?><!DOCTYPE svg PUBLIC "-//W3C//DTD SVG 1.1//EN" "http://www.w3.org/Graphics/SVG/1.1/DTD/svg11.dtd"><svg class="icon" width="200px" height="200.00px" viewBox="0 0 1024 1024" version="1.1" xmlns="http://www.w3.org/2000/svg"><path d="M219.428571 676.571429v36.571428q0 7.428571-5.428571 12.857143T201.142857 731.428571h-36.571428q-7.428571 0-12.857143-5.428571T146.285714 713.142857v-36.571428q0-7.428571 5.428572-12.857143t12.857143-5.428572h36.571428q7.428571 0 12.857143 5.428572t5.428571 12.857143z m0-146.285715v36.571429q0 7.428571-5.428571 12.857143T201.142857 585.142857h-36.571428q-7.428571 0-12.857143-5.428571T146.285714 566.857143v-36.571429q0-7.428571 5.428572-12.857143T164.571429 512h36.571428q7.428571 0 12.857143 5.428571T219.428571 530.285714z m0-146.285714v36.571429q0 7.428571-5.428571 12.857142T201.142857 438.857143h-36.571428q-7.428571 0-12.857143-5.428572T146.285714 420.571429v-36.571429q0-7.428571 5.428572-12.857143T164.571429 365.714286h36.571428q7.428571 0 12.857143 5.428571T219.428571 384z m658.285715 292.571429v36.571428q0 7.428571-5.428572 12.857143t-12.857143 5.428571H310.857143q-7.428571 0-12.857143-5.428571T292.571429 713.142857v-36.571428q0-7.428571 5.428571-12.857143t12.857143-5.428572h548.571428q7.428571 0 12.857143 5.428572t5.428572 12.857143z m0-146.285715v36.571429q0 7.428571-5.428572 12.857143t-12.857143 5.428571H310.857143q-7.428571 0-12.857143-5.428571T292.571429 566.857143v-36.571429q0-7.428571 5.428571-12.857143T310.857143 512h548.571428q7.428571 0 12.857143 5.428571t5.428572 12.857143z m0-146.285714v36.571429q0 7.428571-5.428572 12.857142T859.428571 438.857143H310.857143q-7.428571 0-12.857143-5.428572T292.571429 420.571429v-36.571429q0-7.428571 5.428571-12.857143T310.857143 365.714286h548.571428q7.428571 0 12.857143 5.428571t5.428572 12.857143z m73.142857 402.285714V310.857143q0-7.428571-5.428572-12.857143T932.571429 292.571429H91.428571q-7.428571 0-12.857142 5.428571T73.142857 310.857143v475.428571q0 7.428571 5.428572 12.857143t12.857142 5.428572h841.142858q7.428571 0 12.857142-5.428572t5.428572-12.857143z m73.142857-621.714285v621.714285q0 37.714286-26.857143 64.571429t-64.571428 26.857143H91.428571q-37.714286 0-64.571428-26.857143T0 786.285714V164.571429q0-37.714286 26.857143-64.571429t64.571428-26.857143h841.142858q37.714286 0 64.571428 26.857143t26.857143 64.571429z" /></svg>