<?xml version="1.0" standalone="no"?><!DOCTYPE svg PUBLIC "-//W3C//DTD SVG 1.1//EN" "http://www.w3.org/Graphics/SVG/1.1/DTD/svg11.dtd"><svg class="icon" width="200px" height="200.00px" viewBox="0 0 1024 1024" version="1.1" xmlns="http://www.w3.org/2000/svg"><path d="M146.285714 749.714286v109.714285q0 7.428571-5.428571 12.857143T128 877.714286H18.285714q-7.428571 0-12.857143-5.428572T0 859.428571v-109.714285q0-7.428571 5.428571-12.857143T18.285714 731.428571h109.714286q7.428571 0 12.857143 5.428572t5.428571 12.857143z m0-219.428572v109.714286q0 7.428571-5.428571 12.857143T128 658.285714H18.285714q-7.428571 0-12.857143-5.428571T0 640V530.285714q0-7.428571 5.428571-12.857143T18.285714 512h109.714286q7.428571 0 12.857143 5.428571T146.285714 530.285714z m0-219.428571v109.714286q0 7.428571-5.428571 12.857142T128 438.857143H18.285714q-7.428571 0-12.857143-5.428572T0 420.571429V310.857143q0-7.428571 5.428571-12.857143T18.285714 292.571429h109.714286q7.428571 0 12.857143 5.428571T146.285714 310.857143z m877.714286 438.857143v109.714285q0 7.428571-5.428571 12.857143t-12.857143 5.428572H237.714286q-7.428571 0-12.857143-5.428572T219.428571 859.428571v-109.714285q0-7.428571 5.428572-12.857143t12.857143-5.428572h768q7.428571 0 12.857143 5.428572t5.428571 12.857143zM146.285714 91.428571v109.714286q0 7.428571-5.428571 12.857143T128 219.428571H18.285714q-7.428571 0-12.857143-5.428571T0 201.142857V91.428571q0-7.428571 5.428571-12.857142T18.285714 73.142857h109.714286q7.428571 0 12.857143 5.428572T146.285714 91.428571z m877.714286 438.857143v109.714286q0 7.428571-5.428571 12.857143t-12.857143 5.428571H237.714286q-7.428571 0-12.857143-5.428571T219.428571 640V530.285714q0-7.428571 5.428572-12.857143T237.714286 512h768q7.428571 0 12.857143 5.428571t5.428571 12.857143z m0-219.428571v109.714286q0 7.428571-5.428571 12.857142T1005.714286 438.857143H237.714286q-7.428571 0-12.857143-5.428572T219.428571 420.571429V310.857143q0-7.428571 5.428572-12.857143T237.714286 292.571429h768q7.428571 0 12.857143 5.428571t5.428571 12.857143z m0-219.428572v109.714286q0 7.428571-5.428571 12.857143T1005.714286 219.428571H237.714286q-7.428571 0-12.857143-5.428571T219.428571 201.142857V91.428571q0-7.428571 5.428572-12.857142T237.714286 73.142857h768q7.428571 0 12.857143 5.428572t5.428571 12.857142z" /></svg>