<?xml version="1.0" standalone="no"?><!DOCTYPE svg PUBLIC "-//W3C//DTD SVG 1.1//EN" "http://www.w3.org/Graphics/SVG/1.1/DTD/svg11.dtd"><svg class="icon" width="200px" height="186.52px" viewBox="0 0 1098 1024" version="1.1" xmlns="http://www.w3.org/2000/svg"><path d="M438.85763 658.285714l219.428571 0 0-54.857143-73.142857 0 0-256-65.170286 0-84.553143 78.262857 44.032 45.714286q23.990857-21.138286 31.451429-32.548571l1.170286 0 0 164.571429-73.142857 0 0 54.857143zM731.429059 512q0 40.009143-11.995429 81.115429t-34.011429 76.580571-58.002286 57.709714-78.848 22.308571-78.848-22.308571-58.002286-57.709714-34.011429-76.580571-11.995429-81.115429 11.995429-81.115429 34.011429-76.580571 58.002286-57.709714 78.848-22.308571 78.848 22.308571 58.002286 57.709714 34.011429 76.580571 11.995429 81.115429zM1024.000488 658.285714l0-292.571429q-60.562286 0-103.424-42.861714t-42.861714-103.424l-658.285714 0q0 60.562286-42.861714 103.424t-103.424 42.861714l0 292.571429q60.562286 0 103.424 42.861714t42.861714 103.424l658.285714 0q0-60.562286 42.861714-103.424t103.424-42.861714zM1097.143345 182.857143l0 658.285714q0 14.848-10.825143 25.746286t-25.746286 10.825143l-1024 0q-14.848 0-25.746286-10.825143t-10.825143-25.746286l0-658.285714q0-14.848 10.825143-25.746286t25.746286-10.825143l1024 0q14.848 0 25.746286 10.825143t10.825143 25.746286z" /></svg>