<svg t="1583298301055" class="icon" viewBox="0 0 1024 1024" version="1.1" xmlns="http://www.w3.org/2000/svg" p-id="5984" width="200" height="200"><path d="M890 773.4l-169.6-171.8c27.6-48.2 42-101.8 42-155.8 0-175.2-142.4-317.8-317.2-317.8C270.4 128 128 270.6 128 445.8c0 175.2 142.4 317.8 317.2 317.8 55.8 0 111-15.4 160.2-44.8l168.8 171.2c3.8 3.8 9.2 6.2 14.6 6.2 5.4 0 10.8-2.2 14.6-6.2l86.6-87.6C898 794.2 898 781.4 890 773.4zM445.2 251.8c106.8 0 193.6 87 193.6 194 0 107-86.8 194-193.6 194-106.8 0-193.6-87-193.6-194C251.6 338.8 338.4 251.8 445.2 251.8z" p-id="5985"></path></svg>