<?xml version="1.0" standalone="no"?><!DOCTYPE svg PUBLIC "-//W3C//DTD SVG 1.1//EN" "http://www.w3.org/Graphics/SVG/1.1/DTD/svg11.dtd"><svg class="icon" width="200px" height="200.00px" viewBox="0 0 1024 1024" version="1.1" xmlns="http://www.w3.org/2000/svg"><path d="M576.00192 320.00192l127.99872 127.99872-255.99744 255.99744-127.99872-127.99872zM1001.531105 297.515105l-73.522465-73.522465-32.00992 32.00992c-16.383836 16.383836-39.01401 26.500855-63.99936 26.500855-49.99118 0-90.520695-40.529515-90.520695-90.500215 0-25.00583 10.137499-47.636004 26.541815-64.01984l31.98944-31.98944-73.522465-73.522465c-29.96194-29.96194-79.01105-29.96194-108.97299 0l-595.04045 595.04045c-29.96194 29.96194-29.96194 79.01105 0 108.97299l73.522465 73.522465 31.96896-31.96896c16.383836-16.404316 39.03449-26.541815 64.04032-26.541815 49.99118 0 90.500215 40.529515 90.500215 90.500215 0 25.00583-10.137499 47.636004-26.541815 64.01984l-31.98944 31.98944 73.522465 73.522465c29.96194 29.96194 79.01105 29.96194 108.97299 0l595.04045-595.04045c29.96194-29.98242 29.96194-79.01105 0-108.97299zM448.0032 831.9968l-255.99744-255.99744 383.99616-383.99616 255.99744 255.99744-383.99616 383.99616z" /></svg>