<?xml version="1.0" standalone="no"?><!DOCTYPE svg PUBLIC "-//W3C//DTD SVG 1.1//EN" "http://www.w3.org/Graphics/SVG/1.1/DTD/svg11.dtd"><svg class="icon" width="200px" height="175.04px" viewBox="0 0 1170 1024" version="1.1" xmlns="http://www.w3.org/2000/svg"><path d="M402.285714 512c-121.161143 0-219.428571-98.304-219.428571-219.428571s98.304-219.428571 219.428571-219.428572 219.428571 98.304 219.428572 219.428572-98.304 219.428571-219.428572 219.428571z m548.571429 73.142857h201.142857c9.728 0 18.285714 8.557714 18.285714 18.285714v109.714286c0 9.728-8.557714 18.285714-18.285714 18.285714H950.857143v201.142858c0 9.728-8.557714 18.285714-18.285714 18.285714h-109.714286a18.797714 18.797714 0 0 1-18.285714-18.285714V731.428571h-201.142858a18.797714 18.797714 0 0 1-18.285714-18.285714v-109.714286c0-9.728 8.557714-18.285714 18.285714-18.285714H804.571429v-201.142857c0-9.728 8.557714-18.285714 18.285714-18.285714h109.714286c9.728 0 18.285714 8.557714 18.285714 18.285714V585.142857z m-420.571429 128c0 40.009143 33.133714 73.142857 73.142857 73.142857h146.285715v136.009143c-28.013714 20.553143-63.414857 28.562286-97.718857 28.562286H152.576C61.147429 950.857143 0 896 0 802.852571 0 673.718857 30.281143 475.428571 197.705143 475.428571c9.142857 0 15.433143 3.986286 22.272 9.728 55.990857 42.861714 110.299429 69.705143 182.272 69.705143s126.281143-26.843429 182.272-69.705143c6.838857-5.705143 13.129143-9.728 22.272-9.728 48.566857 0 91.428571 18.285714 124.013714 54.857143h-127.414857c-40.009143 0-73.142857 33.133714-73.142857 73.142857v109.714286z"  /></svg>