<svg t="1583386403588" class="icon" viewBox="0 0 1024 1024" version="1.1" xmlns="http://www.w3.org/2000/svg" p-id="2980" width="200" height="200"><path d="M546 511.4l272 272c18.8 18.8 18.8 49.2 0 67.8l-45.2 45.2c-18.8 18.8-49.2 18.8-67.8 0L512 703.8l-192.8 192.8c-18.8 18.8-49.2 18.8-67.8 0L206 851.4c-18.8-18.8-18.8-49.2 0-67.8l272-272c18.8-19 49.2-19 68-0.2z m-68-384L206 399.4c-18.8 18.8-18.8 49.2 0 67.8l45.2 45.2c18.8 18.8 49.2 18.8 67.8 0l192.8-192.8 192.8 192.8c18.8 18.8 49.2 18.8 67.8 0l45.2-45.2c18.8-18.8 18.8-49.2 0-67.8l-272-272c-18.4-18.8-48.8-18.8-67.6 0z" fill="" p-id="2981"></path></svg>