<?xml version="1.0" standalone="no"?><!DOCTYPE svg PUBLIC "-//W3C//DTD SVG 1.1//EN" "http://www.w3.org/Graphics/SVG/1.1/DTD/svg11.dtd"><svg class="icon" width="200px" height="200.00px" viewBox="0 0 1024 1024" version="1.1" xmlns="http://www.w3.org/2000/svg"><path d="M608.864 653.472c-17.28 17.44-2.656 49.12-2.656 49.12l130.08 217.216c0 0 21.376 28.64 39.872 28.64 18.592 0 36.96-15.264 36.96-15.264l102.848-147.008c0 0 10.368-18.56 10.592-34.784 0.384-23.104-34.464-29.44-34.464-29.44l-243.488-78.208c0 0-23.872-6.336-39.744 9.696zM596.544 544c12.448 21.12 46.816 14.976 46.816 14.976l242.944-71.008c0 0 33.12-13.472 37.824-31.424 4.64-17.952-5.472-39.616-5.472-39.616l-116.096-136.768c0 0-10.048-17.28-30.944-19.04-23.008-1.952-37.184 25.888-37.184 25.888l-137.28 216c0 0-12.128 21.504-0.64 40.96zM481.76 459.776c28.608-7.04 33.152-48.608 33.152-48.608l-1.952-345.856c0 0-4.32-42.656-23.488-54.24-30.08-18.24-38.976-8.704-47.584-7.456l-201.696 74.944c0 0-19.744 6.528-30.048 23.008-14.688 23.36 14.912 57.536 14.912 57.536l209.632 285.76c0 0 20.704 21.408 47.04 14.88zM431.936 599.744c0.736-26.688-32.032-42.688-32.032-42.688l-216.8-109.536c0 0-32.128-13.248-47.712-4.032-11.936 7.072-22.528 19.84-23.584 31.136l-14.112 173.824c0 0-2.112 30.112 5.696 43.808 11.04 19.456 47.424 5.888 47.424 5.888l253.088-55.936c9.824-6.624 27.072-7.2 28.032-42.496zM494.88 693.536c-21.728-11.168-47.712 11.936-47.712 11.936l-169.472 186.56c0 0-21.152 28.544-15.776 46.048 5.056 16.416 13.44 24.576 25.312 30.336l170.208 53.728c0 0 20.64 4.288 36.256-0.256 22.176-6.432 18.08-41.152 18.08-41.152l3.84-252.608c0 0-0.864-24.32-20.736-34.624z" /></svg>